<svg width="185" height="56" viewBox="0 0 185 56" fill="none" xmlns="http://www.w3.org/2000/svg">
<rect width="185" height="56" fill="white"/>
<line y1="55.5" x2="185" y2="55.5" stroke="#F6F9FB" stroke-linejoin="round"/>
<path d="M35.8917 29.6247H18.7694V23.2493C18.7694 21.8708 18.9977 20.7303 19.4543 19.8277C19.9109 18.9252 20.5387 18.2523 21.3378 17.8093C22.1368 17.3662 23.0337 17.1447 24.0284 17.1447C24.9742 17.1447 25.8466 17.358 26.6457 17.7847C27.4284 18.2113 28.0644 18.8759 28.5536 19.7785C29.0265 20.6811 29.2629 21.838 29.2629 23.2493V26.4739H35.8917V29.6247ZM26.7191 26.4739V23.4462C26.7191 22.3467 26.4826 21.559 26.0097 21.0831C25.5205 20.5908 24.8601 20.3447 24.0284 20.3447C23.1804 20.3447 22.52 20.5908 22.0471 21.0831C21.5579 21.559 21.3133 22.3467 21.3133 23.4462V26.4739H26.7191Z" fill="#2D70FD"/>
<path d="M26.3535 26.4738H43.4758V32.8492C43.4758 34.2277 43.2474 35.3682 42.7909 36.2707C42.3343 37.1733 41.7064 37.8461 40.9074 38.2892C40.1084 38.7323 39.2114 38.9538 38.2168 38.9538C37.271 38.9538 36.3985 38.7405 35.5995 38.3138C34.8168 37.8871 34.1808 37.2225 33.6916 36.32C33.2186 35.4174 32.9822 34.2605 32.9822 32.8492V29.6246H26.3535V26.4738ZM35.5261 29.6246V32.6523C35.5261 33.7517 35.7625 34.5394 36.2355 35.0154C36.7247 35.5077 37.3851 35.7538 38.2168 35.7538C39.0647 35.7538 39.7251 35.5077 40.1981 35.0154C40.6873 34.5394 40.9319 33.7517 40.9319 32.6523V29.6246H35.5261Z" fill="#2D70FD"/>
<path d="M24.0292 38.9539C25.5152 38.9539 26.7199 37.7417 26.7199 36.2462C26.7199 34.7508 25.5152 33.5385 24.0292 33.5385C22.5432 33.5385 21.3386 34.7508 21.3386 36.2462C21.3386 37.7417 22.5432 38.9539 24.0292 38.9539Z" fill="#FFD166"/>
<path d="M38.2143 22.5847C39.7003 22.5847 40.905 21.3724 40.905 19.877C40.905 18.3816 39.7003 17.1693 38.2143 17.1693C36.7283 17.1693 35.5237 18.3816 35.5237 19.877C35.5237 21.3724 36.7283 22.5847 38.2143 22.5847Z" fill="#00D8A7"/>
<path d="M54.6786 36.3693V19.1385H61.0138C62.3836 19.1385 63.517 19.3683 64.4138 19.8277C65.3107 20.2872 65.9793 20.919 66.4196 21.7231C66.8599 22.5272 67.08 23.4298 67.08 24.4308C67.08 25.3826 66.8681 26.2606 66.4441 27.0647C66.02 27.8524 65.3596 28.4924 64.4628 28.9847C63.5659 29.4606 62.4163 29.6985 61.0138 29.6985H57.8095V36.3693H54.6786ZM57.8095 27.1385H60.8182C61.9107 27.1385 62.6934 26.9006 63.1664 26.4247C63.6556 25.9324 63.9002 25.2677 63.9002 24.4308C63.9002 23.5775 63.6556 22.9129 63.1664 22.437C62.6934 21.9447 61.9107 21.6985 60.8182 21.6985H57.8095V27.1385ZM68.8514 36.3693V24.1601H71.6399L71.9335 26.4493C72.3737 25.6616 72.969 25.038 73.7191 24.5785C74.4855 24.1026 75.3824 23.8647 76.4097 23.8647V27.1877H75.5291C74.8443 27.1877 74.2327 27.2945 73.6946 27.5077C73.1565 27.721 72.7326 28.0903 72.4227 28.6154C72.1291 29.1406 71.9824 29.8708 71.9824 30.8062V36.3693H68.8514ZM83.5447 36.6647C82.3706 36.6647 81.3107 36.3939 80.3648 35.8524C79.4354 35.3108 78.6935 34.5641 78.1389 33.6124C77.6008 32.6441 77.3318 31.5283 77.3318 30.2647C77.3318 29.001 77.609 27.8933 78.1634 26.9416C78.7179 25.9733 79.4598 25.2185 80.3893 24.677C81.3352 24.1354 82.3951 23.8647 83.5692 23.8647C84.727 23.8647 85.7706 24.1354 86.7001 24.677C87.646 25.2185 88.3879 25.9733 88.926 26.9416C89.4805 27.8933 89.7577 29.001 89.7577 30.2647C89.7577 31.5283 89.4805 32.6441 88.926 33.6124C88.3879 34.5641 87.646 35.3108 86.7001 35.8524C85.7543 36.3939 84.7025 36.6647 83.5447 36.6647ZM83.5447 33.9324C84.3601 33.9324 85.0694 33.6287 85.6728 33.0216C86.2762 32.398 86.5778 31.4791 86.5778 30.2647C86.5778 29.0503 86.2762 28.1395 85.6728 27.5324C85.0694 26.9087 84.3683 26.597 83.5692 26.597C82.7375 26.597 82.0201 26.9087 81.4167 27.5324C80.8296 28.1395 80.5361 29.0503 80.5361 30.2647C80.5361 31.4791 80.8296 32.398 81.4167 33.0216C82.0201 33.6287 82.7294 33.9324 83.5447 33.9324ZM97.5226 36.6647C96.3811 36.6647 95.3619 36.3857 94.4651 35.8278C93.5681 35.2698 92.8587 34.5068 92.337 33.5385C91.8151 32.5703 91.5543 31.4708 91.5543 30.2401C91.5543 29.0093 91.8151 27.918 92.337 26.9662C92.8587 25.998 93.5681 25.2431 94.4651 24.7016C95.3619 24.1437 96.3811 23.8647 97.5226 23.8647C98.4357 23.8647 99.2348 24.037 99.9197 24.3816C100.605 24.7262 101.159 25.2103 101.583 25.8339V18.6462H104.714V36.3693H101.925L101.583 34.6216C101.192 35.1631 100.67 35.6391 100.018 36.0493C99.3816 36.4595 98.55 36.6647 97.5226 36.6647ZM98.183 33.9078C99.194 33.9078 100.018 33.5714 100.654 32.8985C101.306 32.2093 101.632 31.3314 101.632 30.2647C101.632 29.198 101.306 28.3283 100.654 27.6554C100.018 26.9662 99.194 26.6216 98.183 26.6216C97.1882 26.6216 96.3648 26.958 95.7125 27.6308C95.0602 28.3037 94.7341 29.1733 94.7341 30.2401C94.7341 31.3068 95.0602 32.1847 95.7125 32.8739C96.3648 33.5631 97.1882 33.9078 98.183 33.9078ZM111.84 36.6647C110.324 36.6647 109.15 36.1887 108.318 35.237C107.503 34.2852 107.095 32.8903 107.095 31.0524V24.1601H110.201V30.757C110.201 31.8072 110.414 32.6114 110.837 33.1693C111.261 33.7272 111.93 34.0062 112.843 34.0062C113.707 34.0062 114.417 33.6945 114.971 33.0708C115.542 32.4472 115.827 31.5775 115.827 30.4616V24.1601H118.958V36.3693H116.194L115.95 34.3016C115.575 35.0237 115.028 35.598 114.311 36.0247C113.61 36.4514 112.786 36.6647 111.84 36.6647ZM127.505 36.6647C126.265 36.6647 125.173 36.3939 124.227 35.8524C123.281 35.3108 122.531 34.556 121.977 33.5877C121.439 32.6195 121.169 31.5118 121.169 30.2647C121.169 29.0175 121.439 27.9098 121.977 26.9416C122.531 25.9733 123.281 25.2185 124.227 24.677C125.173 24.1354 126.265 23.8647 127.505 23.8647C129.054 23.8647 130.358 24.2749 131.418 25.0954C132.478 25.8995 133.155 27.0154 133.449 28.4431H130.146C129.983 27.8524 129.657 27.3929 129.168 27.0647C128.695 26.7201 128.133 26.5477 127.48 26.5477C126.616 26.5477 125.882 26.876 125.279 27.5324C124.676 28.1887 124.374 29.0995 124.374 30.2647C124.374 31.4298 124.676 32.3406 125.279 32.997C125.882 33.6534 126.616 33.9816 127.48 33.9816C128.133 33.9816 128.695 33.8175 129.168 33.4893C129.657 33.161 129.983 32.6933 130.146 32.0862H133.449C133.155 33.4647 132.478 34.5724 131.418 35.4093C130.358 36.2462 129.054 36.6647 127.505 36.6647ZM140.855 36.3693C139.583 36.3693 138.563 36.0575 137.798 35.4339C137.031 34.8103 136.648 33.7026 136.648 32.1108V26.7939H134.568V24.1601H136.648L137.015 20.8862H139.779V24.1601H143.057V26.7939H139.779V32.1354C139.779 32.7262 139.901 33.1364 140.146 33.3662C140.406 33.5795 140.847 33.6862 141.467 33.6862H142.983V36.3693H140.855ZM150.718 36.6647C149.495 36.6647 148.41 36.4022 147.464 35.877C146.518 35.3518 145.777 34.6133 145.238 33.6616C144.7 32.7098 144.431 31.6103 144.431 30.3631C144.431 29.0995 144.692 27.9754 145.214 26.9908C145.752 26.0062 146.486 25.2431 147.415 24.7016C148.361 24.1437 149.47 23.8647 150.742 23.8647C151.932 23.8647 152.984 24.1272 153.897 24.6524C154.81 25.1775 155.519 25.8995 156.025 26.8185C156.546 27.721 156.808 28.7303 156.808 29.8462C156.808 30.0268 156.8 30.2154 156.784 30.4124C156.784 30.6093 156.775 30.8145 156.759 31.0278H147.538C147.603 31.9795 147.929 32.7262 148.516 33.2678C149.119 33.8093 149.844 34.0801 150.693 34.0801C151.329 34.0801 151.859 33.9406 152.283 33.6616C152.723 33.3662 153.049 32.9887 153.261 32.5293H156.441C156.213 33.3006 155.83 34.0062 155.292 34.6462C154.769 35.2698 154.118 35.7621 153.335 36.1231C152.568 36.4841 151.696 36.6647 150.718 36.6647ZM150.742 26.4247C149.975 26.4247 149.299 26.6462 148.712 27.0893C148.125 27.516 147.749 28.1724 147.587 29.0585H153.628C153.579 28.2545 153.286 27.6145 152.748 27.1385C152.21 26.6626 151.541 26.4247 150.742 26.4247ZM158.83 36.3693V24.1601H161.618L161.912 26.4493C162.352 25.6616 162.947 25.038 163.697 24.5785C164.463 24.1026 165.361 23.8647 166.388 23.8647V27.1877H165.508C164.823 27.1877 164.211 27.2945 163.673 27.5077C163.135 27.721 162.711 28.0903 162.401 28.6154C162.108 29.1406 161.961 29.8708 161.961 30.8062V36.3693H158.83Z" fill="#2D70FD"/>
<line x1="184.5" y1="44" x2="184.5" y2="12" stroke="#F6F9FB" stroke-linejoin="round"/>
</svg>
